<?xml version="1.0" encoding="UTF-8" standalone="no"?>
<svg
   xmlns:dc="http://purl.org/dc/elements/1.1/"
   xmlns:cc="http://creativecommons.org/ns#"
   xmlns:rdf="http://www.w3.org/1999/02/22-rdf-syntax-ns#"
   xmlns:svg="http://www.w3.org/2000/svg"
   xmlns="http://www.w3.org/2000/svg"
   width="874"
   height="300"
   viewBox="0 0 231.24292 79.374"
   version="1.1"
   id="svg8">
  <defs
     id="defs2">
    <marker
       orient="auto"
       refY="0"
       refX="0"
       id="marker1504"
       style="overflow:visible">
      <path
         id="path1502"
         style="fill:#800080;fill-opacity:1;fill-rule:evenodd;stroke:none;stroke-width:0.625;stroke-linejoin:round;stroke-opacity:1"
         d="M 8.7185878,4.0337352 -2.2072895,0.01601326 8.7185884,-4.0017078 c -1.7454984,2.3720609 -1.7354408,5.6174519 -6e-7,8.035443 z"
         transform="matrix(-1.1,0,0,-1.1,-1.1,0)" />
    </marker>
    <marker
       orient="auto"
       refY="0"
       refX="0"
       id="Arrow2Lend"
       style="overflow:visible">
      <path
         id="path1241"
         style="fill:#800080;fill-opacity:1;fill-rule:evenodd;stroke:none;stroke-width:0.625;stroke-linejoin:round;stroke-opacity:1"
         d="M 8.7185878,4.0337352 -2.2072895,0.01601326 8.7185884,-4.0017078 c -1.7454984,2.3720609 -1.7354408,5.6174519 -6e-7,8.035443 z"
         transform="matrix(-1.1,0,0,-1.1,-1.1,0)" />
    </marker>
    <marker
       orient="auto"
       refY="0"
       refX="0"
       id="Arrow2Lend-3"
       style="overflow:visible">
      <path
         id="path1241-6"
         style="fill:#800080;fill-opacity:1;fill-rule:evenodd;stroke:none;stroke-width:0.625;stroke-linejoin:round;stroke-opacity:1"
         d="M 8.7185878,4.0337352 -2.2072895,0.01601326 8.7185884,-4.0017078 c -1.7454984,2.3720609 -1.7354408,5.6174519 -6e-7,8.035443 z"
         transform="matrix(-1.1,0,0,-1.1,-1.1,0)" />
    </marker>
    <marker
       orient="auto"
       refY="0"
       refX="0"
       id="marker1504-1"
       style="overflow:visible">
      <path
         id="path1502-2"
         style="fill:#800080;fill-opacity:1;fill-rule:evenodd;stroke:none;stroke-width:0.625;stroke-linejoin:round;stroke-opacity:1"
         d="M 8.7185878,4.0337352 -2.2072895,0.01601326 8.7185884,-4.0017078 c -1.7454984,2.3720609 -1.7354408,5.6174519 -6e-7,8.035443 z"
         transform="matrix(-1.1,0,0,-1.1,-1.1,0)" />
    </marker>
    <marker
       orient="auto"
       refY="0"
       refX="0"
       id="Arrow2Lend-31"
       style="overflow:visible">
      <path
         id="path1241-9"
         style="fill:#800080;fill-opacity:1;fill-rule:evenodd;stroke:none;stroke-width:0.625;stroke-linejoin:round;stroke-opacity:1"
         d="M 8.7185878,4.0337352 -2.2072895,0.01601326 8.7185884,-4.0017078 c -1.7454984,2.3720609 -1.7354408,5.6174519 -6e-7,8.035443 z"
         transform="matrix(-1.1,0,0,-1.1,-1.1,0)" />
    </marker>
    <marker
       orient="auto"
       refY="0"
       refX="0"
       id="marker1504-4"
       style="overflow:visible">
      <path
         id="path1502-7"
         style="fill:#800080;fill-opacity:1;fill-rule:evenodd;stroke:none;stroke-width:0.625;stroke-linejoin:round;stroke-opacity:1"
         d="M 8.7185878,4.0337352 -2.2072895,0.01601326 8.7185884,-4.0017078 c -1.7454984,2.3720609 -1.7354408,5.6174519 -6e-7,8.035443 z"
         transform="matrix(-1.1,0,0,-1.1,-1.1,0)" />
    </marker>
  </defs>
  <metadata
     id="metadata5">
    <rdf:RDF>
      <cc:Work
         rdf:about="">
        <dc:format>image/svg+xml</dc:format>
        <dc:type
           rdf:resource="http://purl.org/dc/dcmitype/StillImage" />
        <dc:title></dc:title>
      </cc:Work>
    </rdf:RDF>
  </metadata>
  <rect
     y="22.565203"
     x="3.2234268"
     height="35.01231"
     width="55.324791"
     id="rect819"
     style="opacity:1;fill:#ffcc00;fill-opacity:1;stroke:none;stroke-width:0.66145831;stroke-linecap:round;stroke-linejoin:round;stroke-miterlimit:4;stroke-dasharray:none;stroke-dashoffset:0;stroke-opacity:1;paint-order:markers fill stroke" />
  <circle
     r="3.2548866"
     cy="39.801292"
     cx="46.081051"
     id="path821"
     style="opacity:1;fill:#280b0b;fill-opacity:1;stroke:#ffffff;stroke-width:0.64443469;stroke-linecap:round;stroke-linejoin:round;stroke-miterlimit:4;stroke-dasharray:none;stroke-dashoffset:0;stroke-opacity:1;paint-order:markers fill stroke" />
  <circle
     r="3.2548869"
     cy="46.238853"
     cx="39.287579"
     id="path821-3"
     style="opacity:1;fill:#280b0b;fill-opacity:1;stroke:#ffffff;stroke-width:0.64443469;stroke-linecap:round;stroke-linejoin:round;stroke-miterlimit:4;stroke-dasharray:none;stroke-dashoffset:0;stroke-opacity:1;paint-order:markers fill stroke" />
  <circle
     r="3.2548869"
     cy="46.049858"
     cx="52.70573"
     id="path821-6"
     style="opacity:1;fill:#280b0b;fill-opacity:1;stroke:#ffffff;stroke-width:0.64443469;stroke-linecap:round;stroke-linejoin:round;stroke-miterlimit:4;stroke-dasharray:none;stroke-dashoffset:0;stroke-opacity:1;paint-order:markers fill stroke" />
  <circle
     r="3.2548869"
     cy="52.453468"
     cx="46.081051"
     id="path821-7"
     style="opacity:1;fill:#280b0b;fill-opacity:1;stroke:#ffffff;stroke-width:0.64443469;stroke-linecap:round;stroke-linejoin:round;stroke-miterlimit:4;stroke-dasharray:none;stroke-dashoffset:0;stroke-opacity:1;paint-order:markers fill stroke" />
  <path
     id="rect850"
     d="m 14.530354,37.269029 c -1.751714,0 -3.162084,1.561044 -3.162084,3.500046 v 2.38435 H 8.89039 c -1.939,0 -3.50005,1.410367 -3.50005,3.162081 0,1.751713 1.56105,3.16208 3.50005,3.16208 h 2.47788 v 2.230872 c 0,1.939001 1.41037,3.500045 3.162084,3.500045 1.751714,0 3.161562,-1.561044 3.161562,-3.500045 v -2.230872 h 2.137855 c 1.939001,0 3.500045,-1.410367 3.500045,-3.16208 0,-1.751714 -1.561044,-3.162081 -3.500045,-3.162081 h -2.137855 v -2.38435 c 0,-1.939002 -1.409848,-3.500046 -3.161562,-3.500046 z"
     style="opacity:1;fill:#280b0b;fill-opacity:1;stroke:#ffffff;stroke-width:0.67612123;stroke-linecap:round;stroke-linejoin:round;stroke-miterlimit:4;stroke-dasharray:none;stroke-dashoffset:0;stroke-opacity:1;paint-order:markers fill stroke" />
  <rect
     y="22.477369"
     x="67.762428"
     height="34.903545"
     width="75.248764"
     id="rect819-3"
     style="opacity:1;fill:#ff5555;fill-opacity:1;stroke:none;stroke-width:0.77022332;stroke-linecap:round;stroke-linejoin:round;stroke-miterlimit:4;stroke-dasharray:none;stroke-dashoffset:0;stroke-opacity:1;paint-order:markers fill stroke" />
  <ellipse
     ry="3.2447755"
     rx="4.4270606"
     cy="39.659912"
     cx="126.05423"
     id="path821-5"
     style="opacity:1;fill:#280b0b;fill-opacity:1;stroke:#ffffff;stroke-width:0.75040048;stroke-linecap:round;stroke-linejoin:round;stroke-miterlimit:4;stroke-dasharray:none;stroke-dashoffset:0;stroke-opacity:1;paint-order:markers fill stroke" />
  <ellipse
     ry="3.2447758"
     rx="4.4270611"
     cy="46.077469"
     cx="116.81424"
     id="path821-3-6"
     style="opacity:1;fill:#280b0b;fill-opacity:1;stroke:#ffffff;stroke-width:0.75040048;stroke-linecap:round;stroke-linejoin:round;stroke-miterlimit:4;stroke-dasharray:none;stroke-dashoffset:0;stroke-opacity:1;paint-order:markers fill stroke" />
  <ellipse
     ry="3.2447758"
     rx="4.4270611"
     cy="45.889069"
     cx="135.06465"
     id="path821-6-2"
     style="opacity:1;fill:#280b0b;fill-opacity:1;stroke:#ffffff;stroke-width:0.75040048;stroke-linecap:round;stroke-linejoin:round;stroke-miterlimit:4;stroke-dasharray:none;stroke-dashoffset:0;stroke-opacity:1;paint-order:markers fill stroke" />
  <ellipse
     ry="3.2447758"
     rx="4.4270611"
     cy="52.272781"
     cx="126.05423"
     id="path821-7-9"
     style="opacity:1;fill:#280b0b;fill-opacity:1;stroke:#ffffff;stroke-width:0.75040048;stroke-linecap:round;stroke-linejoin:round;stroke-miterlimit:4;stroke-dasharray:none;stroke-dashoffset:0;stroke-opacity:1;paint-order:markers fill stroke" />
  <path
     id="rect850-1"
     d="m 83.141277,37.135511 c -2.382563,0 -4.300847,1.5562 -4.300847,3.48917 v 2.37695 H 75.4702 c -2.63729,0 -4.76051,1.40598 -4.76051,3.15225 0,1.74627 2.12322,3.15226 4.76051,3.15226 h 3.37023 v 2.22394 c 0,1.93298 1.918284,3.48918 4.300847,3.48918 2.382547,0 4.30012,-1.5562 4.30012,-3.48918 v -2.22394 h 2.907755 c 2.637288,0 4.760508,-1.40599 4.760508,-3.15226 0,-1.74627 -2.12322,-3.15225 -4.760508,-3.15225 h -2.907755 v -2.37695 c 0,-1.93297 -1.917573,-3.48917 -4.30012,-3.48917 z"
     style="opacity:1;fill:#280b0b;fill-opacity:1;stroke:#ffffff;stroke-width:0.78729737;stroke-linecap:round;stroke-linejoin:round;stroke-miterlimit:4;stroke-dasharray:none;stroke-dashoffset:0;stroke-opacity:1;paint-order:markers fill stroke" />
  <rect
     y="43.05423"
     x="152.23894"
     height="34.903545"
     width="75.248764"
     id="rect819-3-2"
     style="opacity:1;fill:#ff5555;fill-opacity:1;stroke:none;stroke-width:0.77022332;stroke-linecap:round;stroke-linejoin:round;stroke-miterlimit:4;stroke-dasharray:none;stroke-dashoffset:0;stroke-opacity:1;paint-order:markers fill stroke" />
  <rect
     y="42.999863"
     x="162.20093"
     height="35.01231"
     width="55.324791"
     id="rect819-9"
     style="opacity:1;fill:#ffcc00;fill-opacity:0.49115044;stroke:none;stroke-width:0.66145831;stroke-linecap:round;stroke-linejoin:round;stroke-miterlimit:4;stroke-dasharray:none;stroke-dashoffset:0;stroke-opacity:1;paint-order:markers fill stroke" />
  <circle
     r="3.2548866"
     cy="60.235947"
     cx="205.05853"
     id="path821-36"
     style="opacity:1;fill:#280b0b;fill-opacity:1;stroke:#ffffff;stroke-width:0.64443469;stroke-linecap:round;stroke-linejoin:round;stroke-miterlimit:4;stroke-dasharray:none;stroke-dashoffset:0;stroke-opacity:1;paint-order:markers fill stroke" />
  <circle
     r="3.2548869"
     cy="66.673515"
     cx="198.26506"
     id="path821-3-0"
     style="opacity:1;fill:#280b0b;fill-opacity:1;stroke:#ffffff;stroke-width:0.64443469;stroke-linecap:round;stroke-linejoin:round;stroke-miterlimit:4;stroke-dasharray:none;stroke-dashoffset:0;stroke-opacity:1;paint-order:markers fill stroke" />
  <circle
     r="3.2548869"
     cy="66.48452"
     cx="211.68321"
     id="path821-6-6"
     style="opacity:1;fill:#280b0b;fill-opacity:1;stroke:#ffffff;stroke-width:0.64443469;stroke-linecap:round;stroke-linejoin:round;stroke-miterlimit:4;stroke-dasharray:none;stroke-dashoffset:0;stroke-opacity:1;paint-order:markers fill stroke" />
  <circle
     r="3.2548869"
     cy="72.888145"
     cx="205.05853"
     id="path821-7-2"
     style="opacity:1;fill:#280b0b;fill-opacity:1;stroke:#ffffff;stroke-width:0.64443469;stroke-linecap:round;stroke-linejoin:round;stroke-miterlimit:4;stroke-dasharray:none;stroke-dashoffset:0;stroke-opacity:1;paint-order:markers fill stroke" />
  <path
     id="rect850-6"
     d="m 173.50784,57.703686 c -1.75171,0 -3.16208,1.56105 -3.16208,3.50005 v 2.38435 h -2.47788 c -1.939,0 -3.50005,1.41037 -3.50005,3.16208 0,1.75171 1.56105,3.16208 3.50005,3.16208 h 2.47788 v 2.23087 c 0,1.939 1.41037,3.50005 3.16208,3.50005 1.75172,0 3.16157,-1.56105 3.16157,-3.50005 v -2.23087 h 2.13785 c 1.939,0 3.50005,-1.41037 3.50005,-3.16208 0,-1.75171 -1.56105,-3.16208 -3.50005,-3.16208 h -2.13785 v -2.38435 c 0,-1.939 -1.40985,-3.50005 -3.16157,-3.50005 z"
     style="opacity:1;fill:#280b0b;fill-opacity:1;stroke:#ffffff;stroke-width:0.67612123;stroke-linecap:round;stroke-linejoin:round;stroke-miterlimit:4;stroke-dasharray:none;stroke-dashoffset:0;stroke-opacity:1;paint-order:markers fill stroke" />
  <rect
     y="1.70324"
     x="152.2065"
     height="34.903545"
     width="75.248764"
     id="rect819-3-1"
     style="opacity:1;fill:#ff5555;fill-opacity:1;stroke:none;stroke-width:0.77022332;stroke-linecap:round;stroke-linejoin:round;stroke-miterlimit:4;stroke-dasharray:none;stroke-dashoffset:0;stroke-opacity:1;paint-order:markers fill stroke" />
  <rect
     y="1.70324"
     x="152.2065"
     height="35.01231"
     width="27.15"
     id="rect819-8"
     style="opacity:1;fill:#ffcc00;fill-opacity:0.49019608;stroke:none;stroke-width:0.46336958;stroke-linecap:round;stroke-linejoin:round;stroke-miterlimit:4;stroke-dasharray:none;stroke-dashoffset:0;stroke-opacity:1;paint-order:markers fill stroke" />
  <path
     id="rect850-7"
     d="m 163.51343,16.407083 c -1.75172,0 -3.16209,1.56104 -3.16209,3.50004 v 2.38435 h -2.47788 c -1.939,0 -3.50005,1.41037 -3.50005,3.16209 0,1.75171 1.56105,3.16208 3.50005,3.16208 h 2.47788 v 2.23087 c 0,1.939 1.41037,3.50004 3.16209,3.50004 1.75171,0 3.16156,-1.56104 3.16156,-3.50004 v -2.23087 h 2.13785 c 1.939,0 3.50005,-1.41037 3.50005,-3.16208 0,-1.75172 -1.56105,-3.16209 -3.50005,-3.16209 h -2.13785 v -2.38435 c 0,-1.939 -1.40985,-3.50004 -3.16156,-3.50004 z"
     style="opacity:1;fill:#280b0b;fill-opacity:1;stroke:#ffffff;stroke-width:0.67612129;stroke-linecap:round;stroke-linejoin:round;stroke-miterlimit:4;stroke-dasharray:none;stroke-dashoffset:0;stroke-opacity:1;paint-order:markers fill stroke" />
  <rect
     y="1.5944735"
     x="200.30527"
     height="35.01231"
     width="27.149998"
     id="rect819-8-5"
     style="opacity:1;fill:#ffcc00;fill-opacity:0.49019608;stroke:none;stroke-width:0.46336958;stroke-linecap:round;stroke-linejoin:round;stroke-miterlimit:4;stroke-dasharray:none;stroke-dashoffset:0;stroke-opacity:1;paint-order:markers fill stroke" />
  <circle
     r="3.2548869"
     cy="18.939348"
     cx="215.17247"
     id="path821-79"
     style="opacity:1;fill:#280b0b;fill-opacity:1;stroke:#ffffff;stroke-width:0.64443469;stroke-linecap:round;stroke-linejoin:round;stroke-miterlimit:4;stroke-dasharray:none;stroke-dashoffset:0;stroke-opacity:1;paint-order:markers fill stroke" />
  <circle
     r="3.2548871"
     cy="25.376907"
     cx="208.379"
     id="path821-3-2"
     style="opacity:1;fill:#280b0b;fill-opacity:1;stroke:#ffffff;stroke-width:0.64443469;stroke-linecap:round;stroke-linejoin:round;stroke-miterlimit:4;stroke-dasharray:none;stroke-dashoffset:0;stroke-opacity:1;paint-order:markers fill stroke" />
  <circle
     r="3.2548871"
     cy="25.187912"
     cx="221.79715"
     id="path821-6-0"
     style="opacity:1;fill:#280b0b;fill-opacity:1;stroke:#ffffff;stroke-width:0.64443469;stroke-linecap:round;stroke-linejoin:round;stroke-miterlimit:4;stroke-dasharray:none;stroke-dashoffset:0;stroke-opacity:1;paint-order:markers fill stroke" />
  <circle
     r="3.2548871"
     cy="31.59152"
     cx="215.17247"
     id="path821-7-23"
     style="opacity:1;fill:#280b0b;fill-opacity:1;stroke:#ffffff;stroke-width:0.64443469;stroke-linecap:round;stroke-linejoin:round;stroke-miterlimit:4;stroke-dasharray:none;stroke-dashoffset:0;stroke-opacity:1;paint-order:markers fill stroke" />
  <path
     id="path1218"
     d="m 64.14147,39.502051 h 2.718321"
     style="fill:#800080;stroke:none;stroke-width:0.49546266;stroke-linecap:butt;stroke-linejoin:miter;stroke-miterlimit:4;stroke-dasharray:none;stroke-opacity:1;marker-start:url(#Arrow2Lend);marker-end:url(#marker1504)" />
  <path
     id="path1218-9"
     d="m 148.43636,27.601121 h 2.71832"
     style="fill:#800080;stroke:none;stroke-width:0.49546266;stroke-linecap:butt;stroke-linejoin:miter;stroke-miterlimit:4;stroke-dasharray:none;stroke-opacity:1;marker-start:url(#Arrow2Lend-3);marker-end:url(#marker1504-1)" />
  <path
     id="path1218-8"
     d="m 148.43636,51.980591 h 2.71832"
     style="fill:#800080;stroke:none;stroke-width:0.49546266;stroke-linecap:butt;stroke-linejoin:miter;stroke-miterlimit:4;stroke-dasharray:none;stroke-opacity:1;marker-start:url(#Arrow2Lend-31);marker-end:url(#marker1504-4)" />
</svg>
